#!OML:ASF H:\ManfredETheater\Project 1\Capture day 1\Session 1\subject.ASF
:FULLY-SPECIFIED
:DEGREES
138
root -6.25925 16.2049 23.6917 1.9423 -39.3406 -4.22226
lowerback 10.9067 0.844502 5.13475
upperback 1.11953 1.84143 2.67551
thorax -4.8749 0.813651 -0.363635
lowerneck -19.8257 -4.47727 -5.52926
upperneck 13.0832 -5.02806 2.83198
head 7.47252 -2.41258 1.21474
rclavicle -2.08724e-014 -4.85035e-014
rhumerus -51.5564 14.4145 -93.8503
rradius 121.024
rwrist -10.9956
rhand -21.5586 15.6758
rfingers 7.12502
rthumb 4.83501 -14.249
lclavicle -2.08724e-014 -4.85035e-014
lhumerus -77.0371 -7.03097 96.997
lradius 107.986
lwrist 14.6321
lhand -21.3043 -11.3496
lfingers 7.12502
lthumb 5.08056 18.5695
rfemur -4.90501 -6.0606 30.5545
rtibia 76.8572
rfoot 1.92249 -13.1409
rtoes -8.49682
lfemur -46.0264 1.34643 -16.1474
ltibia 40.7194
lfoot 5.33296 -9.36983
ltoes -18.776
139
root -6.56395 16.1379 24.1049 1.7059 -39.5868 -4.90948
lowerback 11.2114 0.720258 5.48876
upperback 1.2063 1.74208 2.8317
thorax -4.95237 0.756372 -0.387993
lowerneck -19.727 -4.28521 -5.31194
upperneck 13.0723 -4.81987 2.75435
head 7.43607 -2.31073 1.18238
rclavicle 1.85864e-014 -2.54444e-014
rhumerus -51.814 13.458 -93.5526
rradius 119.428
rwrist -10.6746
rhand -21.4687 15.3437
rfingers 7.12502
rthumb 4.92176 -14.5792
lclavicle 1.85864e-014 -2.54444e-014
lhumerus -76.7122 -6.57556 97.3631
lradius 108.1
lwrist 14.2377
lhand -21.2149 -11.3695
lfingers 7.12502
lthumb 5.16687 18.5475
rfemur -6.05157 -5.99454 30.3007
rtibia 79.9185
rfoot 0.898719 -15.0074
rtoes -6.75793
lfemur -45.3937 1.43091 -16.2318
ltibia 42.3688
lfoot 4.26991 -8.96209
ltoes -15.2978
140
root -6.86223 16.0622 24.5108 1.26979 -39.7846 -5.33728
lowerback 11.6337 0.56 5.6575
upperback 1.29403 1.58099 2.92403
thorax -5.10065 0.670523 -0.366888
lowerneck -19.573 -4.06571 -5.05175
upperneck 13.0002 -4.58341 2.65293
head 7.36806 -2.19582 1.13967
rclavicle -3.94588e-014 7.95139e-015
rhumerus -52.0466 12.4229 -93.3101
rradius 117.595
rwrist -10.4436
rhand -21.4367 14.9879
rfingers 7.12502
rthumb 4.95271 -14.9342
lclavicle -3.94588e-014 7.95139e-015
lhumerus -76.1811 -6.18872 97.7908
lradius 108.137
lwrist 13.845
lhand -21.0991 -11.3769
lfingers 7.12502
lthumb 5.27867 18.5374
rfemur -7.39232 -6.08562 29.7488
rtibia 82.9627
rfoot -0.275294 -16.4104
rtoes -5.3324
lfemur -44.7766 1.33779 -16.3815
ltibia 44.6576
lfoot 2.64325 -8.62306
ltoes -10.9902
141
root -7.15495 15.9793 24.907 0.485361 -39.908 -5.28194
lowerback 12.178 0.374072 5.44124
upperback 1.38801 1.3424 2.91568
thorax -5.32008 0.552974 -0.223031
lowerneck -19.3822 -3.8231 -4.75827
upperneck 12.8858 -4.3199 2.52239
head 7.27847 -2.06919 1.08559
rclavicle 4.55217e-014 -1.03368e-014
rhumerus -52.238 11.3219 -93.1037
rradius 115.535
rwrist -10.3496
rhand -21.4646 14.6118
rfingers 7.12502
rthumb 4.92574 -15.311
lclavicle 4.55217e-014 -1.03368e-014
lhumerus -75.4176 -5.88039 98.271
lradius 108.073
lwrist 13.494
lhand -20.9791 -11.3614
lfingers 7.12502
lthumb 5.39451 18.5499
rfemur -8.9237 -6.35223 28.7148
rtibia 85.9493
rfoot -1.57134 -17.3369
rtoes -4.38743
lfemur -44.1331 1.00961 -16.7768
ltibia 47.411
lfoot 0.56675 -8.26314
ltoes -6.54149
142
root -7.44264 15.8902 25.2925 -0.678687 -39.9088 -4.67576
lowerback 12.8284 0.168319 4.78221
upperback 1.48788 1.01611 2.79605
thorax -5.59877 0.401357 0.0701789
lowerneck -19.172 -3.56694 -4.45743
upperneck 12.7393 -4.03771 2.38211
head 7.17537 -1.93406 1.02911
rclavicle -1.64991e-014 1.66979e-014
rhumerus -52.3776 10.1533 -92.9053
rradius 113.261
rwrist -10.4161
rhand -21.557 14.2166
rfingers 7.12502
rthumb 4.83651 -15.7082
lclavicle -1.64991e-014 1.66979e-014
lhumerus -74.3947 -5.66887 98.7904
lradius 107.881
lwrist 13.2196
lhand -20.844 -11.324
lfingers 7.12502
lthumb 5.52497 18.584
rfemur -10.655 -6.82088 27.1452
rtibia 88.8325
rfoot -2.98911 -17.7766
rtoes -3.92988
lfemur -43.4593 0.449781 -17.5115
ltibia 50.4616
lfoot -1.80268 -7.80853
ltoes -2.64718
143
root -7.72591 15.7958 25.6672 -2.1115 -39.7446 -3.60375
lowerback 13.512 -0.0500569 3.7562
upperback 1.58905 0.606366 2.57857
thorax -5.89214 0.218374 0.488619
lowerneck -18.9801 -3.31298 -4.17371
upperneck 12.5795 -3.75284 2.24757
head 7.07281 -1.79753 0.976636
rclavicle -4.01545e-014 -5.56597e-015
rhumerus -52.4553 8.90001 -92.6825
rradius 110.788
rwrist -10.611
rhand -21.7256 13.806
rfingers 7.12502
rthumb 4.67369 -16.1224
lclavicle -4.01545e-014 -5.56597e-015
lhumerus -73.0821 -5.58652 99.3315
lradius 107.535
lwrist 13.0634
lhand -20.7075 -11.268
lfingers 7.12502
lthumb 5.65674 18.6365
rfemur -12.6319 -7.48869 25.1323
rtibia 91.5515
rfoot -4.49742 -17.7461
rtoes -3.96103
lfemur -42.7921 -0.282543 -18.5784
ltibia 53.646
lfoot -4.32687 -7.23062
ltoes -0.00901258
144
root -8.00462 15.6981 26.0323 -3.63707 -39.4597 -2.24516
lowerback 14.1472 -0.2527 2.52576
upperback 1.69701 0.162649 2.28727
thorax -6.13954 0.0259405 0.95959
lowerneck -18.8643 -3.08227 -3.9292
upperneck 12.4359 -3.48984 2.13996
head 6.99144 -1.6701 0.935041
rclavicle -4.79071e-014 4.6118e-014
rhumerus -52.4555 7.52909 -92.3987
rradius 108.133
rwrist -10.8606
rhand -21.9863 13.4103
rfingers 7.12502
rthumb 4.42197 -16.5236
lclavicle -4.79071e-014 4.6118e-014
lhumerus -71.4435 -5.6895 99.8659
lradius 107.008
lwrist 13.0344
lhand -20.5919 -11.1984
lfingers 7.12502
lthumb 5.76832 18.7031
rfemur -14.9045 -8.26727 22.8703
rtibia 94.0243
rfoot -6.02566 -17.2912
rtoes -4.63097
lfemur -42.1551 -1.06386 -19.8726
ltibia 56.8186
lfoot -6.82999 -6.56227
ltoes 1.54748
145
root -8.27989 15.6004 26.3884 -5.06095 -39.0962 -0.820385
lowerback 14.6645 -0.429614 1.2608
upperback 1.8031 -0.275906 1.96754
thorax -6.30857 -0.161232 1.42603
lowerneck -18.8513 -2.88652 -3.73719
upperneck 12.3363 -3.26284 2.06993
head 6.94521 -1.55824 0.908228
rclavicle 1.01082e-013 -3.97569e-015
rhumerus -52.3924 6.04212 -92.0362
rradius 105.324
rwrist -11.0712
rhand -22.3636 13.0524
rfingers 7.12502
rthumb 4.05764 -16.8887
lclavicle 1.01082e-013 -3.97569e-015
lhumerus -69.4822 -5.9949 100.363
lradius 106.292
lwrist 13.1052
lhand -20.5362 -11.1349
lfingers 7.12502
lthumb 5.82213 18.7651
rfemur -17.5057 -9.08291 20.6214
rtibia 96.1538
rfoot -7.47297 -16.5468
rtoes -5.78247
lfemur -41.5663 -1.75596 -21.2508
ltibia 59.8535
lfoot -9.24445 -5.89214
ltoes 1.35059
146
root -8.55192 15.5077 26.7391 -6.24037 -38.7385 0.449289
lowerback 15.0277 -0.571625 0.173014
upperback 1.90829 -0.655553 1.65874
thorax -6.38229 -0.323398 1.79503
lowerneck -18.9328 -2.73844 -3.60549
upperneck 12.2949 -3.08885 2.04255
head 6.93742 -1.47021 0.897575
rclavicle -4.42296e-015 -4.77083e-015
rhumerus -52.315 4.4456 -91.5791
rradius 102.426
rwrist -11.1752
rhand -22.8547 12.7437
rfingers 7.12502
rthumb 3.58344 -17.2059
lclavicle -4.42296e-015 -4.77083e-015
lhumerus -67.24 -6.50608 100.788
lradius 105.416
lwrist 13.2211
lhand -20.5432 -11.0708
lfingers 7.12502
lthumb 5.81543 18.8294
rfemur -20.3887 -9.83261 18.6498
rtibia 97.8257
rfoot -8.78936 -15.5895
rtoes -7.42904
lfemur -40.9755 -2.24709 -22.5334
ltibia 62.6484
lfoot -11.6451 -5.26547
ltoes 0.805102
147
root -8.82088 15.4228 27.0858 -7.1144 -38.4468 1.44944
lowerback 15.2346 -0.675792 -0.631616
upperback 2.00651 -0.94422 1.38841
thorax -6.37462 -0.448492 2.02536
lowerneck -19.0926 -2.64131 -3.52874
upperneck 12.3234 -2.97256 2.04499
head 6.96866 -1.40934 0.897901
rclavicle -1.19768e-014 8.74653e-015
rhumerus -52.2799 2.78449 -91.033
rradius 99.544
rwrist -11.1826
rhand -23.4693 12.48
rfingers 7.12502
rthumb 2.98986 -17.4788
lclavicle -1.19768e-014 8.74653e-015
lhumerus -64.7877 -7.18964 101.124
lradius 104.438
lwrist 13.2661
lhand -20.641 -11.0014
lfingers 7.12502
lthumb 5.72095 18.9013
rfemur -23.4973 -10.4467 17.1184
rtibia 98.9543
rfoot -9.96775 -14.5239
rtoes -9.63327
lfemur -40.3239 -2.47379 -23.6187
ltibia 65.1317
lfoot -13.9678 -4.68696
ltoes 0.503271
148
root -9.08762 15.3475 27.4309 -7.68951 -38.2888 2.10797
lowerback 15.3126 -0.736186 -1.09008
upperback 2.10102 -1.11574 1.17849
thorax -6.30553 -0.525339 2.09745
lowerneck -19.2902 -2.59434 -3.50792
upperneck 12.4156 -2.91326 2.07297
head 7.02994 -1.376 0.908573
rclavicle -4.17448e-015 1.35174e-014
rhumerus -52.3538 1.14112 -90.42
rradius 96.8133
rwrist -11.1943
rhand -24.1598 12.2578
rfingers 7.12502
rthumb 2.32304 -17.7093
lclavicle -4.17448e-015 1.35174e-014
lhumerus -62.2226 -7.97277 101.366
lradius 103.444
lwrist 13.091
lhand -20.8523 -10.9286
lfingers 7.12502
lthumb 5.51699 18.9795
rfemur -26.714 -10.8485 16.127
rtibia 99.476
rfoot -10.9405 -13.4561
rtoes -12.0935
lfemur -39.5076 -2.38724 -24.4216
ltibia 67.2651
lfoot -16.3084 -4.21529
ltoes 0.652746
149
root -9.35253 15.2835 27.7755 -8.03156 -38.2677 2.43897
lowerback 15.3262 -0.759601 -1.22752
upperback 2.18731 -1.18034 1.03696
thorax -6.21845 -0.557315 2.03708
lowerneck -19.4879 -2.58589 -3.52593
upperneck 12.5638 -2.8967 2.10178
head 7.11154 -1.36503 0.920726
rclavicle -7.9812e-014 -5.56597e-015
rhumerus -52.5948 -0.37555 -89.7692
rradius 94.3749
rwrist -11.3457
rhand -24.8527 12.0635
rfingers 7.12502
rthumb 1.65382 -17.9099
lclavicle -7.9812e-014 -5.56597e-015
lhumerus -59.6563 -8.75591 101.521
lradius 102.543
lwrist 12.5875
lhand -21.1566 -10.8456
lfingers 7.12502
lthumb 5.22313 19.07
rfemur -29.9119 -11.0537 15.6572
rtibia 99.3531
rfoot -11.6458 -12.5143
rtoes -14.9823
lfemur -38.4617 -2.02213 -24.9305
ltibia 69.0369
lfoot -18.6653 -3.83174
ltoes 1.35833
150
root -9.61618 15.2303 28.119 -8.21033 -38.3305 2.51022
lowerback 15.3294 -0.764418 -1.13069
upperback 2.25296 -1.17702 0.959776
thorax -6.15407 -0.560272 1.89861
lowerneck -19.6435 -2.59975 -3.56556
upperneck 12.7417 -2.90384 2.11536
head 7.19683 -1.36827 0.928905
rclavicle -1.54555e-014 2.0276e-014
rhumerus -53.0501 -1.64432 -89.1287
rradius 92.3771
rwrist -11.7837
rhand -25.4989 11.8975
rfingers 7.12502
rthumb 1.02968 -18.0797
lclavicle -1.54555e-014 2.0276e-014
lhumerus -57.1959 -9.44399 101.612
lradius 101.854
lwrist 11.7675
lhand -21.4917 -10.7501
lfingers 7.12502
lthumb 4.89961 19.1733
rfemur -32.9513 -11.1042 15.5833
rtibia 98.5961
rfoot -12.2117 -11.6833
rtoes -17.7063
lfemur -37.177 -1.48394 -25.1887
ltibia 70.4579
lfoot -21.011 -3.54335
ltoes 2.5271
151
root -9.88011 15.1874 28.4604 -8.35022 -38.4101 2.50326
lowerback 15.3484 -0.7635 -0.995424
upperback 2.29691 -1.15723 0.919193
thorax -6.12203 -0.55493 1.77464
lowerneck -19.7659 -2.61255 -3.59216
upperneck 12.9443 -2.90748 2.08767
head 7.28394 -1.37346 0.922064
rclavicle 8.07563e-014 -1.70955e-014
rhumerus -53.7145 -2.57013 -88.5475
rradius 90.9123
rwrist -12.549
rhand -26.0074 11.7777
rfingers 7.12502
rthumb 0.538564 -18.2014
lclavicle 8.07563e-014 -1.70955e-014
lhumerus -54.9148 -9.96026 101.668
lradius 101.491
lwrist 10.7698
lhand -21.8277 -10.6235
lfingers 7.12502
lthumb 4.5751 19.3071
rfemur -35.7693 -11.0925 15.6941
rtibia 97.2379
rfoot -12.6332 -10.9878
rtoes -20.2578
lfemur -35.6579 -0.900158 -25.3405
ltibia 71.5356
lfoot -23.293 -3.32456
ltoes 3.85709
